<svg width="24" height="24" viewBox="0 0 24 24" fill="none" xmlns="http://www.w3.org/2000/svg">
<rect width="24" height="24" rx="12" fill="#047857"/>
<mask id="mask0_521_5199" style="mask-type:alpha" maskUnits="userSpaceOnUse" x="7" y="7" width="10" height="10">
<path d="M10.3924 15.5871L14.5591 11.4203L12.58 9.44118L8.41325 13.6079C8.35588 13.6654 8.31513 13.7373 8.29532 13.816L7.8335 16.1668L10.1839 15.705C10.2628 15.6853 10.335 15.6445 10.3924 15.5871ZM15.9043 10.0752C16.0724 9.90702 16.1668 9.67897 16.1668 9.44118C16.1668 9.2034 16.0724 8.97534 15.9043 8.80718L15.1931 8.09605C15.025 7.92794 14.7969 7.8335 14.5591 7.8335C14.3214 7.8335 14.0933 7.92794 13.9251 8.09605L13.214 8.80718L15.1931 10.7863L15.9043 10.0752Z" fill="#006FFD"/>
</mask>
<g mask="url(#mask0_521_5199)">
<rect x="7" y="7" width="10" height="10" fill="white"/>
</g>
</svg>
