<svg width="185" height="48" viewBox="0 0 185 48" fill="none" xmlns="http://www.w3.org/2000/svg">
<path fill-rule="evenodd" clip-rule="evenodd" d="M50.717 26.6732C50.45 26.795 48.0372 29.442 47.3251 30.0511C47.222 30.1401 47.1799 30.1729 47.0768 30.2759C46.7254 30.6226 46.7114 30.8897 46.4865 31.4659C45.9712 32.7965 45.3668 33.874 44.6266 35.0452C44.3923 35.4154 43.2539 36.9895 42.8978 37.3409C42.7666 37.4674 42.776 37.444 42.6682 37.5798C42.5324 37.7485 42.4106 37.9171 42.256 38.0577C42.0451 38.2451 41.9655 38.2685 41.7968 38.484C41.3846 38.9947 39.7964 40.2315 39.3232 40.5642C38.8219 40.9202 35.9453 42.6911 35.2191 42.7942C34.9333 42.8364 34.7272 42.6677 34.6663 42.4428C34.6007 42.1945 35.6173 33.3352 35.6923 32.6091C35.8001 31.5315 35.9219 30.4399 36.039 29.3764C36.2217 27.746 36.2639 27.9522 33.9963 27.9522C31.682 27.9522 31.8647 27.657 31.771 29.3858C31.7101 30.5242 31.6304 31.7002 31.5929 32.8293C31.518 35.0968 31.34 37.4018 31.2322 39.674C31.1244 41.9556 31.012 44.2653 30.8668 46.5375C30.7731 48.0039 31.0448 47.8353 32.975 47.4042C36.7417 46.5563 40.0821 44.8556 42.9634 42.485C43.0712 42.396 43.0946 42.3491 43.2117 42.2601L43.6802 41.8432C44.3314 41.3372 44.5657 40.9062 45.067 40.5079C45.6713 40.0254 47.6296 37.3034 47.8686 36.9192C49.6395 34.1036 50.8201 31.1192 51.3495 27.7414C51.387 27.4884 51.4854 27.1604 51.387 26.9168C51.3074 26.7341 50.9981 26.5467 50.717 26.6732ZM24.9075 28.0225C24.4624 28.2567 24.6264 28.5753 24.6639 29.3202C24.6873 29.7934 24.7013 30.2666 24.7294 30.7351C25.0246 35.673 25.2214 40.6532 25.5259 45.5865C25.5587 46.0831 25.5821 46.575 25.6055 47.0716C25.6524 48.0929 25.9007 48.0039 27.7794 47.9945C28.4259 47.9945 28.5618 47.9008 28.5946 47.2496C28.7913 43.3002 29.0724 39.3273 29.2317 35.3732C29.3114 33.4196 29.4613 31.4472 29.5409 29.4935C29.6112 27.7226 29.7799 27.9428 27.9527 27.9428C27.3811 27.9428 25.2635 27.8397 24.9075 28.0225ZM7.34347 24.1714L7.40437 22.5738C7.4278 22.2927 7.41374 22.3021 7.34347 22.1943L5.38983 24.2042C4.12488 25.5066 2.7147 26.809 1.38417 28.1255C0.747011 28.758 -0.803719 29.9058 0.517447 30.2525L4.38256 31.2973C4.70582 31.391 4.80889 31.4425 4.92133 31.7611C5.76931 34.216 6.90776 36.357 8.34606 38.2732C8.58967 38.5965 9.82651 40.1706 10.1498 40.4377C10.3934 40.6438 10.9415 41.1826 11.1289 41.4121C11.41 41.7588 12.9654 43.0004 13.2747 43.2299C15.2096 44.6588 17.4443 45.891 19.768 46.6781C23.7831 48.0367 23.3989 47.6291 23.338 46.0596C23.263 44.1435 23.0991 42.2835 23.0335 40.3299C22.9492 37.8375 22.7664 35.2842 22.6259 32.7965C22.5556 31.5549 22.4994 30.3134 22.4338 29.0719C22.3916 28.2614 22.4807 27.9288 21.5671 27.9334C20.8971 27.9381 20.2272 27.9334 19.5525 27.9334C17.7863 27.9334 17.9971 27.8023 18.2689 30.2103L19.4448 41.0186C19.6041 42.5646 19.3417 42.6162 17.6785 41.6511C16.676 41.0655 15.0362 39.9692 14.2351 39.1821C14.0664 39.0134 13.8743 38.8916 13.6869 38.723C13.4995 38.5543 13.3777 38.3482 13.1997 38.2076C12.9701 38.0249 12.8952 37.9453 12.7218 37.7391L12.2486 37.2097C12.0987 37.0223 11.9582 36.8349 11.8083 36.6428C9.33927 33.5133 7.34347 29.2593 7.34347 24.1714Z" fill="#134E4A"/>
<path fill-rule="evenodd" clip-rule="evenodd" d="M12.1549 10.8469C12.5063 10.533 13.448 9.42734 14.0383 8.94948C14.1976 8.82298 14.2866 8.70586 14.4412 8.58405C16.0762 7.28162 16.9992 6.59761 19.1308 5.58097C22.0449 4.19422 25.746 3.45399 29.4097 3.78662C29.4097 4.66272 27.442 8.20456 26.6456 9.24931C25.6945 10.4862 24.72 11.6715 23.5207 12.6928C21.984 14.0046 20.4614 14.9697 18.5031 15.8973C16.0575 17.0545 11.4943 18.0852 8.38818 17.5886C8.80046 15.9816 10.0888 13.6673 11.0352 12.3367C11.2132 12.0837 11.4053 11.8448 11.588 11.5871C11.7426 11.3716 12.0659 11.0483 12.1549 10.8469ZM43.132 10.9312C43.9894 12.0181 44.5891 12.7724 45.3012 14.0421C45.9383 15.1852 46.4724 16.3611 46.9222 17.7432C47.9201 20.7837 48.1309 23.7915 47.6671 27.1272C47.8826 27.0241 51.5556 23.234 52.3849 22.386L53.9871 20.7931C54.5165 20.2497 55.224 19.7671 54.8492 19.2846C54.6758 19.0597 51.3916 18.2164 50.9091 18.132C50.5905 16.8202 50.0892 15.3773 49.5551 14.2201C49.185 13.4143 48.2012 11.4325 47.6765 10.8047C47.1986 9.99423 45.7884 8.2233 45.1466 7.55804C43.549 5.90424 41.7781 4.46126 39.7729 3.28533C31.4477 -1.58705 20.6909 -1.00611 13.2043 4.80327C12.7358 5.16401 11.4475 6.19002 11.1195 6.56013C10.5526 7.20666 10.2669 7.35658 9.72809 8.01248C9.06282 8.82767 8.15862 9.7834 7.59173 10.8C6.978 11.4231 5.59124 14.4403 5.28204 15.2227C4.70578 16.6797 4.03583 18.8816 3.88123 20.5636C11.4943 22.4141 18.1236 21.1211 24.2141 16.8765C25.4743 16.0004 27.1984 14.4356 28.1916 13.2831C28.6554 12.7443 29.6486 11.5168 29.9766 10.9734C30.0047 10.9265 30.0609 10.8891 30.0843 10.9546C30.6044 12.1774 31.9396 14.1123 32.7548 15.1102C32.9797 15.3866 33.1577 15.6209 33.3685 15.8598C33.8276 16.3752 34.2587 16.8156 34.7365 17.2747L37.7349 19.7812C38.344 20.2215 40.4663 21.5942 41.2674 21.8144C41.5344 19.8093 41.7031 18.1508 41.5579 16.0753C41.4501 14.5293 41.1222 12.2149 40.6302 10.875C40.2273 9.35238 39.6183 8.33574 39.3559 7.48776C40.2695 7.83914 42.284 9.98486 43.132 10.9312ZM37.6646 13.4002C37.927 14.2997 38.1425 15.2836 38.269 16.2534C37.8333 16.0472 36.3997 14.3091 35.964 13.7375C34.699 12.0884 33.4528 9.75061 32.8157 7.77354C32.5486 6.9443 32.0052 5.08905 31.9958 4.18953L33.3826 5.60908C34.3945 6.93025 34.7131 7.08485 35.7766 8.95416C36.5356 10.4346 37.1915 11.7792 37.6646 13.4002Z" fill="#047857"/>
<path fill-rule="evenodd" clip-rule="evenodd" d="M17.2287 23.0096C16.7228 23.1267 16.8399 23.6233 16.8399 24.1668C16.8399 26.1063 16.6197 26.4718 17.5989 26.4671C19.3464 26.4577 37.407 26.528 37.7537 26.4484C38.2268 26.3406 38.1191 25.7925 38.1191 25.2912C38.1191 22.6395 38.4798 22.9955 35.8281 22.9955C34.6428 23.0002 17.5239 22.944 17.2287 23.0096Z" fill="#FB923C"/>
<path d="M73.9797 19.9023C73.9797 19.4596 73.8137 19.2383 73.4816 19.2383C73.1561 19.2383 72.7492 19.2969 72.2609 19.4141C71.7792 19.5312 71.2616 19.7135 70.7082 19.9609C69.4452 20.5273 68.3026 21.3086 67.2805 22.3047C67.1437 22.4219 66.9582 22.4805 66.7238 22.4805C66.496 22.4805 66.3039 22.4251 66.1476 22.3145C65.9914 22.1973 65.9133 22.0475 65.9133 21.8652C65.9133 21.6829 65.9523 21.4909 66.0305 21.2891C66.1086 21.0807 66.19 20.8366 66.2746 20.5566C66.3592 20.2702 66.4471 19.987 66.5383 19.707C66.7726 19.0365 66.9907 18.5938 67.1926 18.3789C67.5637 18.0729 68.5565 17.7344 70.1711 17.3633C71.9614 16.9531 73.7127 16.748 75.425 16.748C76.1411 16.748 76.7336 17.0117 77.2023 17.5391C77.606 17.9948 77.8078 18.4733 77.8078 18.9746C77.8078 19.4043 77.4888 20.4232 76.8508 22.0312C75.8417 24.5964 74.8098 26.6016 73.7551 28.0469C73.4621 28.4505 73.1724 28.7793 72.8859 29.0332C72.4693 29.3587 71.9224 29.6322 71.2453 29.8535C70.0995 30.2376 69.354 30.4297 69.009 30.4297C68.6704 30.4297 68.3351 30.3841 68.0031 30.293C67.6711 30.2083 67.3488 30.0977 67.0363 29.9609C66.7303 29.8177 66.4439 29.6582 66.1769 29.4824C65.91 29.3001 65.6756 29.1211 65.4738 28.9453C65.0441 28.5612 64.8293 28.2487 64.8293 28.0078C64.8293 27.7799 65.106 27.4121 65.6594 26.9043C66.2258 26.3835 66.6913 26.123 67.0558 26.123C67.3032 26.123 67.6027 26.2174 67.9543 26.4062L68.7062 26.8359C68.869 26.9206 69.0122 26.9629 69.1359 26.9629C69.2661 26.9629 69.4452 26.8717 69.673 26.6895C69.9009 26.5007 70.145 26.2533 70.4055 25.9473C70.6659 25.6413 70.9328 25.2897 71.2062 24.8926C71.4862 24.4954 71.7564 24.0885 72.0168 23.6719C72.2837 23.2487 72.5344 22.8288 72.7687 22.4121C73.0096 21.9954 73.218 21.6146 73.3937 21.2695C73.7844 20.5208 73.9797 20.0651 73.9797 19.9023ZM88.9504 24.7559C88.9504 25.3483 89.1229 25.6445 89.468 25.6445C90.3143 25.6445 91.4146 25.0716 92.7687 23.9258L93.0324 23.7012C93.5598 23.3496 93.9862 23.1738 94.3117 23.1738C94.6437 23.1738 94.8521 23.2227 94.9367 23.3203C95.0279 23.418 95.0734 23.5742 95.0734 23.7891C95.0734 24.2708 94.8293 24.7819 94.341 25.3223C93.6118 26.2077 92.6125 27.0475 91.343 27.8418C89.8716 28.7663 88.5532 29.2285 87.3879 29.2285C86.5741 29.2285 86.063 28.776 85.8547 27.8711C85.7961 27.6367 85.7538 27.4121 85.7277 27.1973C85.6626 26.6764 85.5943 26.3867 85.5226 26.3281C85.451 26.2695 85.3078 26.276 85.093 26.3477C84.8846 26.4128 84.634 26.5267 84.341 26.6895C84.0545 26.8457 83.7355 27.0378 83.384 27.2656C81.522 28.5026 80.451 29.209 80.1711 29.3848C79.5005 29.8014 79.048 30.0098 78.8137 30.0098C78.5793 30.0098 78.3482 29.9609 78.1203 29.8633C77.8989 29.7656 77.7036 29.6419 77.5344 29.4922C77.1828 29.1602 77.007 28.8216 77.007 28.4766C77.007 26.5039 77.4367 24.7786 78.2961 23.3008C78.869 22.3047 79.5721 21.6146 80.4055 21.2305C80.8286 21.0286 81.2844 20.9277 81.7726 20.9277C82.6646 20.9277 83.1105 21.2207 83.1105 21.8066C83.1105 22.1647 82.8989 22.7507 82.4758 23.5645L82.1828 24.1406C81.9745 24.5378 81.8736 24.7624 81.8801 24.8145C81.9191 25.0098 82.007 25.1074 82.1437 25.1074C82.2935 25.1074 82.5148 24.9967 82.8078 24.7754L84.6047 23.4375L85.5031 22.8125C86.5383 22.1354 87.3 21.7969 87.7883 21.7969C88.0487 21.7969 88.2863 21.901 88.5012 22.1094C88.8983 22.487 89.0969 22.8158 89.0969 23.0957C89.0969 23.1868 89.0871 23.2975 89.0676 23.4277C89.0545 23.5579 89.0383 23.6979 89.0187 23.8477L88.9797 24.3066C88.9601 24.4629 88.9504 24.6126 88.9504 24.7559ZM103.833 23.3105C104.471 23.3105 104.79 23.5319 104.79 23.9746C104.79 24.3978 104.491 24.9447 103.892 25.6152L103.413 26.1133C102.834 26.7057 102.157 27.2884 101.382 27.8613C100.614 28.4342 99.9367 28.8867 99.3508 29.2188C97.9901 29.974 96.7564 30.3516 95.6496 30.3516C94.6079 30.3516 93.7583 30.0391 93.1008 29.4141C92.5344 28.8737 92.2512 28.304 92.2512 27.7051C92.2512 27.1061 92.3098 26.5104 92.4269 25.918C92.5441 25.3255 92.6971 24.7461 92.8859 24.1797C93.2635 23.0273 93.6769 22.0475 94.1262 21.2402C94.2433 21.0189 94.3019 20.8757 94.3019 20.8105H93.0422C92.5669 20.8105 92.1991 20.6999 91.9387 20.4785C91.6782 20.2572 91.548 20.0065 91.548 19.7266C91.548 19.4466 91.6001 19.2415 91.7043 19.1113C91.8085 18.9811 91.9387 18.8867 92.0949 18.8281C92.3163 18.737 92.6418 18.6914 93.0715 18.6914L95.4641 18.7012C95.5161 18.6816 95.6203 18.5417 95.7766 18.2812L96.3723 17.2559C96.6262 16.8001 96.8801 16.4648 97.134 16.25C97.3944 16.0352 97.6971 15.9277 98.0422 15.9277C98.3937 15.9277 98.6867 15.9603 98.9211 16.0254C99.162 16.0905 99.3638 16.1719 99.5266 16.2695C99.8456 16.4779 100.005 16.7057 100.005 16.9531C100.005 17.0573 99.9693 17.1973 99.8976 17.373L99.3508 18.7012L103.989 18.6914C104.393 18.6914 104.595 18.8997 104.595 19.3164C104.595 20.306 103.713 20.8008 101.948 20.8008L98.3742 20.8105C98.2961 20.8496 98.1626 21.0384 97.9738 21.377L97.5344 22.1875C97.4237 22.3893 97.3456 22.5423 97.3 22.6465L97.0851 23.125C96.6489 24.1081 96.4308 24.8177 96.4308 25.2539C96.4308 25.6901 96.5448 26.0547 96.7726 26.3477C97.007 26.6406 97.3163 26.7871 97.7004 26.7871C98.0845 26.7871 98.4588 26.7122 98.8234 26.5625C99.1945 26.4128 99.5558 26.2305 99.9074 26.0156C100.545 25.6185 101.047 25.2507 101.411 24.9121C101.776 24.5736 102.079 24.3164 102.32 24.1406C102.32 24.1406 102.547 23.9811 103.003 23.6621C103.355 23.4277 103.631 23.3105 103.833 23.3105ZM116.509 22.8223C116.821 22.8223 116.978 22.998 116.978 23.3496C116.978 23.584 116.896 23.8802 116.734 24.2383C116.577 24.5898 116.349 24.9219 116.05 25.2344C115.751 25.5404 115.405 25.8594 115.015 26.1914C114.631 26.5234 114.178 26.8717 113.657 27.2363C113.143 27.6009 112.573 27.9622 111.948 28.3203C111.323 28.6784 110.659 29.0007 109.956 29.2871C108.4 29.9251 106.893 30.2441 105.435 30.2441C104.321 30.2441 103.348 29.9544 102.515 29.375C101.642 28.7695 101.206 28.0339 101.206 27.168C101.206 25.8073 101.939 24.515 103.404 23.291C104.667 22.2363 106.154 21.4193 107.866 20.8398C108.908 20.4883 109.79 20.3125 110.513 20.3125C111.099 20.3125 111.594 20.4557 111.997 20.7422C112.427 21.0547 112.642 21.4746 112.642 22.002C112.642 22.8288 111.987 23.7435 110.679 24.7461C110.471 24.9089 110.282 25.0456 110.112 25.1562L109.761 25.3906C109.11 25.8464 108.12 26.3574 106.792 26.9238C107.202 27.1387 107.583 27.2461 107.935 27.2461C108.293 27.2461 108.612 27.2038 108.892 27.1191C109.178 27.0345 109.501 26.9141 109.859 26.7578C110.217 26.6016 110.598 26.416 111.001 26.2012C111.411 25.9798 111.825 25.7389 112.241 25.4785C113.172 24.8991 113.98 24.3066 114.663 23.7012C115.021 23.3691 115.477 23.1055 116.03 22.9102C116.213 22.8516 116.372 22.8223 116.509 22.8223ZM105.737 25.5664L106.275 25.293C106.45 25.2018 106.607 25.1172 106.743 25.0391C108.058 24.2839 108.807 23.8184 108.989 23.6426C109.172 23.4668 109.263 23.3464 109.263 23.2812C109.263 23.2096 109.243 23.1283 109.204 23.0371C109.165 22.946 109.113 22.8646 109.048 22.793C108.892 22.6107 108.726 22.5195 108.55 22.5195C108.374 22.5195 108.179 22.5521 107.964 22.6172C107.756 22.6823 107.544 22.7734 107.329 22.8906C107.114 23.0013 106.906 23.138 106.704 23.3008C106.509 23.457 106.336 23.6263 106.187 23.8086C105.842 24.2188 105.669 24.5736 105.669 24.873C105.669 25.1725 105.692 25.4036 105.737 25.5664ZM126.167 23.1055C126.584 23.1055 126.792 23.278 126.792 23.623C126.792 24.0462 126.538 24.5508 126.03 25.1367C125.191 26.1133 124.201 27.0638 123.062 27.9883C121.206 29.4727 119.549 30.2148 118.091 30.2148C117.043 30.2148 116.183 29.7591 115.513 28.8477C114.816 27.8971 114.468 26.6211 114.468 25.0195C114.468 22.9167 115.493 20.5924 117.544 18.0469C118.846 16.4258 120.073 15.3255 121.226 14.7461C121.584 14.5638 121.857 14.4727 122.046 14.4727C122.241 14.4727 122.417 14.5052 122.573 14.5703C122.736 14.6289 122.886 14.7135 123.023 14.8242C123.342 15.0911 123.501 15.4134 123.501 15.791C123.501 16.1686 123.397 16.6178 123.189 17.1387C122.98 17.653 122.678 18.2031 122.28 18.7891C121.441 20.0326 120.305 21.224 118.872 22.3633C118.501 23.0729 118.316 23.9258 118.316 24.9219C118.316 25.3711 118.459 25.7943 118.745 26.1914C119.038 26.5885 119.361 26.7871 119.712 26.7871C120.194 26.7871 121.115 26.2891 122.476 25.293L124.214 23.9551C124.924 23.3887 125.575 23.1055 126.167 23.1055ZM136.148 23.1055C136.564 23.1055 136.773 23.278 136.773 23.623C136.773 24.0462 136.519 24.5508 136.011 25.1367C135.171 26.1133 134.181 27.0638 133.042 27.9883C131.187 29.4727 129.53 30.2148 128.071 30.2148C127.023 30.2148 126.164 29.7591 125.493 28.8477C124.797 27.8971 124.448 26.6211 124.448 25.0195C124.448 22.9167 125.474 20.5924 127.525 18.0469C128.827 16.4258 130.054 15.3255 131.206 14.7461C131.564 14.5638 131.838 14.4727 132.027 14.4727C132.222 14.4727 132.398 14.5052 132.554 14.5703C132.717 14.6289 132.866 14.7135 133.003 14.8242C133.322 15.0911 133.482 15.4134 133.482 15.791C133.482 16.1686 133.377 16.6178 133.169 17.1387C132.961 17.653 132.658 18.2031 132.261 18.7891C131.421 20.0326 130.285 21.224 128.853 22.3633C128.482 23.0729 128.296 23.9258 128.296 24.9219C128.296 25.3711 128.439 25.7943 128.726 26.1914C129.019 26.5885 129.341 26.7871 129.693 26.7871C130.174 26.7871 131.096 26.2891 132.456 25.293L134.195 23.9551C134.904 23.3887 135.555 23.1055 136.148 23.1055ZM143.071 18.7109C142.883 18.8672 142.678 18.9974 142.456 19.1016C142.235 19.1992 141.987 19.248 141.714 19.248C141.441 19.248 141.177 19.2025 140.923 19.1113C140.669 19.0202 140.448 18.8932 140.259 18.7305C139.849 18.3789 139.644 17.9297 139.644 17.3828C139.644 16.543 140.347 15.918 141.753 15.5078C142.228 15.3646 142.619 15.293 142.925 15.293C143.231 15.293 143.459 15.3288 143.609 15.4004C143.765 15.4655 143.892 15.5534 143.989 15.6641C144.185 15.8854 144.282 16.1133 144.282 16.3477C144.282 16.5755 144.253 16.7839 144.195 16.9727C144.142 17.1615 144.064 17.3568 143.96 17.5586C143.856 17.7604 143.729 17.9622 143.579 18.1641C143.43 18.3659 143.26 18.5482 143.071 18.7109ZM140.611 29.4629C140.116 29.7168 139.634 29.9186 139.165 30.0684C138.696 30.2246 138.234 30.3027 137.779 30.3027C137.329 30.3027 136.861 30.1953 136.372 29.9805C135.89 29.7591 135.461 29.4661 135.083 29.1016C134.243 28.2878 133.823 27.3828 133.823 26.3867C133.823 25.4688 134.097 24.5378 134.644 23.5938C135.145 22.7409 135.783 22.0247 136.558 21.4453C137.333 20.8659 138.052 20.5762 138.716 20.5762C139.667 20.5762 140.174 20.8431 140.239 21.377C140.259 21.5397 140.269 21.7285 140.269 21.9434C140.269 22.1582 140.217 22.4056 140.112 22.6855C140.015 22.959 139.885 23.2357 139.722 23.5156C139.566 23.7891 139.39 24.0592 139.195 24.3262C139.006 24.5866 138.823 24.8242 138.648 25.0391C138.309 25.4492 138.039 25.7454 137.837 25.9277C137.837 26.1491 138.003 26.377 138.335 26.6113C138.648 26.8327 138.911 26.9434 139.126 26.9434C139.348 26.9434 139.605 26.8913 139.898 26.7871C140.197 26.6829 140.503 26.543 140.816 26.3672C141.135 26.1914 141.457 25.9896 141.782 25.7617C142.114 25.5339 142.44 25.2995 142.759 25.0586L144.546 23.6621C145.256 23.1478 145.832 22.8906 146.275 22.8906C146.45 22.8906 146.584 22.9557 146.675 23.0859C146.773 23.2096 146.821 23.3561 146.821 23.5254C146.821 23.6947 146.737 23.929 146.568 24.2285C146.398 24.5215 146.164 24.847 145.864 25.2051C145.571 25.5632 145.226 25.9375 144.829 26.3281C144.432 26.7188 144.002 27.1029 143.54 27.4805C143.078 27.8581 142.596 28.2194 142.095 28.5645C141.6 28.903 141.105 29.2025 140.611 29.4629ZM153.804 24.0625C153.804 23.8672 153.667 23.7695 153.394 23.7695C153.12 23.7695 152.821 23.8216 152.495 23.9258C152.17 24.0299 151.812 24.1667 151.421 24.3359C151.03 24.5052 150.624 24.6973 150.2 24.9121C149.777 25.127 149.37 25.3451 148.98 25.5664C148.14 26.0417 147.567 26.4062 147.261 26.6602C146.961 26.9076 146.714 27.1257 146.519 27.3145C146.33 27.5033 146.141 27.6758 145.952 27.832C145.51 28.1966 145.174 28.3789 144.946 28.3789C144.719 28.3789 144.514 28.3431 144.331 28.2715C144.149 28.1934 143.983 28.0859 143.833 27.9492C143.482 27.6172 143.306 27.2233 143.306 26.7676C143.306 25.9603 144.019 24.375 145.445 22.0117C146.056 20.9961 146.649 20.1042 147.222 19.3359C147.795 18.5612 148.345 17.9036 148.872 17.3633C149.4 16.8164 149.904 16.3542 150.386 15.9766C151.376 15.2018 152.163 14.8145 152.749 14.8145C152.918 14.8145 153.058 14.8763 153.169 15C153.28 15.1237 153.335 15.2572 153.335 15.4004C153.335 15.7259 153.231 16.0645 153.023 16.416C152.821 16.7611 152.551 17.1973 152.212 17.7246L150.132 20.8789C149.481 21.8815 149.139 22.4447 149.107 22.5684C149.081 22.6855 149.068 22.7702 149.068 22.8223C149.068 22.8743 149.103 22.9004 149.175 22.9004C149.247 22.9004 149.448 22.8255 149.78 22.6758C149.78 22.6758 150.197 22.487 151.03 22.1094C152.912 21.2891 154.432 20.8789 155.591 20.8789C156.249 20.8789 156.799 21.1816 157.241 21.7871C157.652 22.3535 157.857 22.9655 157.857 23.623C157.857 24.2806 157.756 24.847 157.554 25.3223C157.352 25.7975 157.053 26.1719 156.655 26.4453C156.265 26.7188 155.874 26.9727 155.484 27.207L154.234 27.9492C151.87 29.2708 150.155 29.9316 149.087 29.9316C147.609 29.9316 146.87 29.5475 146.87 28.7793C146.87 28.3626 147.072 28.0534 147.476 27.8516C151.193 25.8398 153.133 24.7819 153.296 24.6777C153.635 24.4629 153.804 24.2578 153.804 24.0625ZM166.333 18.7109C166.144 18.8672 165.939 18.9974 165.718 19.1016C165.497 19.1992 165.249 19.248 164.976 19.248C164.702 19.248 164.439 19.2025 164.185 19.1113C163.931 19.0202 163.709 18.8932 163.521 18.7305C163.111 18.3789 162.905 17.9297 162.905 17.3828C162.905 16.543 163.609 15.918 165.015 15.5078C165.49 15.3646 165.881 15.293 166.187 15.293C166.493 15.293 166.721 15.3288 166.87 15.4004C167.027 15.4655 167.154 15.5534 167.251 15.6641C167.446 15.8854 167.544 16.1133 167.544 16.3477C167.544 16.5755 167.515 16.7839 167.456 16.9727C167.404 17.1615 167.326 17.3568 167.222 17.5586C167.118 17.7604 166.991 17.9622 166.841 18.1641C166.691 18.3659 166.522 18.5482 166.333 18.7109ZM163.872 29.4629C163.377 29.7168 162.896 29.9186 162.427 30.0684C161.958 30.2246 161.496 30.3027 161.04 30.3027C160.591 30.3027 160.122 30.1953 159.634 29.9805C159.152 29.7591 158.723 29.4661 158.345 29.1016C157.505 28.2878 157.085 27.3828 157.085 26.3867C157.085 25.4688 157.359 24.5378 157.905 23.5938C158.407 22.7409 159.045 22.0247 159.82 21.4453C160.594 20.8659 161.314 20.5762 161.978 20.5762C162.928 20.5762 163.436 20.8431 163.501 21.377C163.521 21.5397 163.53 21.7285 163.53 21.9434C163.53 22.1582 163.478 22.4056 163.374 22.6855C163.277 22.959 163.146 23.2357 162.984 23.5156C162.827 23.7891 162.652 24.0592 162.456 24.3262C162.267 24.5866 162.085 24.8242 161.909 25.0391C161.571 25.4492 161.301 25.7454 161.099 25.9277C161.099 26.1491 161.265 26.377 161.597 26.6113C161.909 26.8327 162.173 26.9434 162.388 26.9434C162.609 26.9434 162.866 26.8913 163.159 26.7871C163.459 26.6829 163.765 26.543 164.077 26.3672C164.396 26.1914 164.719 25.9896 165.044 25.7617C165.376 25.5339 165.702 25.2995 166.021 25.0586L167.808 23.6621C168.517 23.1478 169.094 22.8906 169.536 22.8906C169.712 22.8906 169.846 22.9557 169.937 23.0859C170.034 23.2096 170.083 23.3561 170.083 23.5254C170.083 23.6947 169.999 23.929 169.829 24.2285C169.66 24.5215 169.426 24.847 169.126 25.2051C168.833 25.5632 168.488 25.9375 168.091 26.3281C167.694 26.7188 167.264 27.1029 166.802 27.4805C166.34 27.8581 165.858 28.2194 165.357 28.5645C164.862 28.903 164.367 29.2025 163.872 29.4629ZM178.696 24.7559C178.696 25.3483 178.869 25.6445 179.214 25.6445C180.06 25.6445 181.161 25.0716 182.515 23.9258L182.779 23.7012C183.306 23.3496 183.732 23.1738 184.058 23.1738C184.39 23.1738 184.598 23.2227 184.683 23.3203C184.774 23.418 184.82 23.5742 184.82 23.7891C184.82 24.2708 184.575 24.7819 184.087 25.3223C183.358 26.2077 182.359 27.0475 181.089 27.8418C179.618 28.7663 178.299 29.2285 177.134 29.2285C176.32 29.2285 175.809 28.776 175.601 27.8711C175.542 27.6367 175.5 27.4121 175.474 27.1973C175.409 26.6764 175.34 26.3867 175.269 26.3281C175.197 26.2695 175.054 26.276 174.839 26.3477C174.631 26.4128 174.38 26.5267 174.087 26.6895C173.801 26.8457 173.482 27.0378 173.13 27.2656C171.268 28.5026 170.197 29.209 169.917 29.3848C169.247 29.8014 168.794 30.0098 168.56 30.0098C168.325 30.0098 168.094 29.9609 167.866 29.8633C167.645 29.7656 167.45 29.6419 167.28 29.4922C166.929 29.1602 166.753 28.8216 166.753 28.4766C166.753 26.5039 167.183 24.7786 168.042 23.3008C168.615 22.3047 169.318 21.6146 170.152 21.2305C170.575 21.0286 171.03 20.9277 171.519 20.9277C172.411 20.9277 172.857 21.2207 172.857 21.8066C172.857 22.1647 172.645 22.7507 172.222 23.5645L171.929 24.1406C171.721 24.5378 171.62 24.7624 171.626 24.8145C171.665 25.0098 171.753 25.1074 171.89 25.1074C172.04 25.1074 172.261 24.9967 172.554 24.7754L174.351 23.4375L175.249 22.8125C176.284 22.1354 177.046 21.7969 177.534 21.7969C177.795 21.7969 178.032 21.901 178.247 22.1094C178.644 22.487 178.843 22.8158 178.843 23.0957C178.843 23.1868 178.833 23.2975 178.814 23.4277C178.801 23.5579 178.784 23.6979 178.765 23.8477L178.726 24.3066C178.706 24.4629 178.696 24.6126 178.696 24.7559Z" fill="#047857"/>
</svg>
